<svg xmlns="http://www.w3.org/2000/svg">
      <symbol viewBox="0 0 24 24" id="icon-vk">
        <g clip-path="url(#a)"><path fill-rule="evenodd" clip-rule="evenodd" d="M23.4 6c.2-.6 0-1-.7-1H20c-.6 0-1 .3-1.1.7 0 0-1.3 3.2-3.2 5.3-.7.6-1 .8-1.3.8-.1 0-.4-.2-.4-.7V5.9c0-.6-.2-.9-.7-.9H9.2c-.5 0-.7.3-.7.6 0 .6 1 .8 1 2.5V12c0 .8-.1 1-.5 1-.9 0-3-3.2-4.3-6.9-.3-.7-.5-1-1.2-1H1c-.8 0-.9.3-.9.7 0 .7.9 4.1 4.1 8.6 2.2 3 5.3 4.7 8 4.7 1.7 0 2-.4 2-1v-2.3c0-.8 0-.9.6-.9.4 0 1 .2 2.6 1.7 1.8 1.7 2.1 2.5 3.1 2.5H23c.8 0 1.2-.4 1-1.1-.3-.7-1.1-1.8-2.3-3L20 13c-.4-.5-.3-.7 0-1.1 0 0 3.2-4.4 3.5-6Z"/></g><defs><clipPath id="a"><path d="M0 0h24v24H0z"/></clipPath></defs>
      </symbol>
      <symbol  viewBox="0 0 24 24" id="icon-telegram">
        <path d="m22.4 4.6-3.1 15c-.3 1-.9 1.3-1.8.8l-4.8-3.6-2.3 2.3c-.3.2-.5.4-1 .4l.3-4.9 9-8c.4-.4-.1-.6-.6-.3l-11 7-4.8-1.5c-1-.3-1-1 .2-1.5L21 3c.9-.3 1.6.2 1.3 1.5Z"/>
      </symbol>
      <symbol  viewBox="0 0 24 24" id="icon-youtube">
        <path d="M19.2 5H4.8A2.9 2.9 0 0 0 2 7.8v8.3C2 17.7 3.3 19 4.8 19h14.4c1.6 0 2.8-1.3 2.8-2.8V7.8C22 6.3 20.8 5 19.2 5ZM9 15.4V8.6L16 12 9 15.4Z"/>
      </symbol>
      <symbol viewBox="0 0 32 32" id="icon-htmlacademy">
        <path d="M16.1 2 4 3.2v21L16 31l12-6.8v-21L16.1 2Zm10.2 10.3L16 6.5l-.1-.2v.1L5.7 12.3V4.6l10.3-1 10.3 1v7.7ZM16 7.8l10.2 5.7-4 2.2-6.3-3.6v1.2l5.2 3-.8.4-4.4-2.5v1.2l3.4 2-.8.3-2.6-1.5v1.2l1.7 1-1.6.9-10.2-5.7L16 7.8Zm-10.3 7 10.2 5.8v.9l-7-4v1.2l7 4v1l-7-4v1.2l7 4 7.3-4.1v-4.4l3-1.7v8.5L16 29 5.7 23.3v-8.5Z"/>
      </symbol>
    </svg>
